<svg width="230" height="230" viewBox="0 0 230 230" fill="none" xmlns="http://www.w3.org/2000/svg">
<rect width="230" height="230" rx="115" fill="#FCFCFC"/>
<circle cx="115" cy="80" r="5" fill="#133E87"/>
<path d="M50 70C40 70 40 70 40 80C34.4772 80 30 75.5228 30 70C30 64.4772 34.4772 60 40 60C45.5228 60 50 64.4772 50 70Z" fill="#133E87"/>
<path d="M100 50C90 50 90 50 80 60C80.0001 50 80 55.5228 80 50C80 44.4772 84.4772 40 90 40C95.5229 40 100 44.4772 100 50Z" fill="#133E87"/>
<path d="M150 50C150 55.5228 150 50 150 60C140 50 140 50 130 50C130 44.4772 134.477 40 140 40C145.523 40 150 44.4772 150 50Z" fill="#133E87"/>
<path d="M50 180C50 185.523 45.5228 190 40 190C34.4772 190 30 185.523 30 180C30 174.477 34.4772 170 40 170C40 180 40 180 50 180Z" fill="#133E87"/>
<path d="M200 180C200 185.523 195.523 190 190 190C184.477 190 180 185.523 180 180C190 180 190 180 190 170C195.523 170 200 174.477 200 180Z" fill="#133E87"/>
<path d="M200 70C200 75.5228 195.523 80 190 80C190 70 190 70 180 70C180 64.4772 184.477 60 190 60C195.523 60 200 64.4772 200 70Z" fill="#133E87"/>
<rect x="30" y="90" width="170" height="10" fill="#133E87"/>
<rect x="40" y="180" width="150" height="10" fill="#133E87"/>
<rect x="40" y="60" width="150" height="10" fill="#133E87"/>
<rect x="190" y="70" width="10" height="20" fill="#133E87"/>
<rect x="30" y="70" width="10" height="20" fill="#133E87"/>
<rect x="90" y="40" width="50" height="10" fill="#133E87"/>
<rect x="30" y="110" width="10" height="70" fill="#133E87"/>
<rect x="190" y="110" width="10" height="70" fill="#133E87"/>
<rect x="70" y="110" width="20" height="70" fill="#133E87"/>
<rect x="170" y="110" width="10" height="60" fill="#133E87"/>
<rect x="50" y="110" width="10" height="60" fill="#133E87"/>
<rect x="140" y="110" width="20" height="70" fill="#133E87"/>
<line x1="66.4645" y1="66.4645" x2="86.4645" y2="46.4645" stroke="#133E87" stroke-width="10"/>
<line x1="143.536" y1="46.4645" x2="163.536" y2="66.4645" stroke="#133E87" stroke-width="10"/>
<path d="M81.8623 115.812L115 162.205L148.137 115.812" stroke="#133E87" stroke-width="20"/>
</svg>
